<svg xmlns="http://www.w3.org/2000/svg" width="1600" height="1000" viewBox="0 0 1600 1000">
  <defs>
    <radialGradient id="g" cx="50%" cy="0%" r="90%">
      <stop offset="0%" stop-color="#2b2d42" stop-opacity="1"/>
      <stop offset="100%" stop-color="#0b0c12" stop-opacity="1"/>
    </radialGradient>
  </defs>
  <rect width="1600" height="1000" fill="url(#g)"/>
  <g fill="#ffffff" opacity="0.65">
    <circle cx="120" cy="120" r="1.6"/>
    <circle cx="280" cy="210" r="1.2"/>
    <circle cx="520" cy="140" r="1.4"/>
    <circle cx="760" cy="220" r="1.1"/>
    <circle cx="980" cy="150" r="1.5"/>
    <circle cx="1240" cy="240" r="1.2"/>
    <circle cx="1460" cy="120" r="1.4"/>
    <circle cx="180" cy="420" r="1.2"/>
    <circle cx="420" cy="520" r="1.4"/>
    <circle cx="680" cy="460" r="1.2"/>
    <circle cx="980" cy="520" r="1.4"/>
    <circle cx="1320" cy="420" r="1.2"/>
    <circle cx="200" cy="760" r="1.4"/>
    <circle cx="520" cy="820" r="1.2"/>
    <circle cx="860" cy="780" r="1.4"/>
    <circle cx="1200" cy="840" r="1.2"/>
    <circle cx="1460" cy="760" r="1.4"/>
  </g>
  <g opacity="0.18">
    <rect width="1600" height="1000" fill="#fe2c55"/>
  </g>
</svg>
